<?xml version="1.0" encoding="UTF-8"?>
<svg version="1.1" xmlns="http://www.w3.org/2000/svg" width="150" height="150">
<path d="M0 0 C4.02939555 2.77685617 6.89768959 5.82122918 9.6640625 9.8359375 C10.09589844 10.39410156 10.52773437 10.95226563 10.97265625 11.52734375 C15.19461479 18.05750107 14.93626069 27.36489124 13.6640625 34.8359375 C12.37785763 38.11092735 10.92790914 40.81638906 8.9765625 43.734375 C7.39920476 45.84706767 7.39920476 45.84706767 7.6640625 48.8359375 C8.3240625 49.4959375 8.9840625 50.1559375 9.6640625 50.8359375 C9.2890625 53.4609375 9.2890625 53.4609375 8.6640625 55.8359375 C4.14755141 55.96077728 -0.36801084 56.05085 -4.88574219 56.1105957 C-6.418147 56.13553509 -7.95043542 56.16950016 -9.48242188 56.21313477 C-20.93805183 56.53093129 -29.33069944 55.41155595 -38.2109375 47.5859375 C-44.16698083 41.1663342 -46.66825411 32.95671045 -46.5546875 24.33984375 C-45.87387172 16.54693451 -43.18799629 9.36826019 -37.359375 4.0234375 C-25.92599508 -5.40615419 -13.35305777 -7.50448893 0 0 Z M-29.3359375 16.8359375 C-29.6659375 17.8259375 -29.9959375 18.8159375 -30.3359375 19.8359375 C-23.0759375 19.8359375 -15.8159375 19.8359375 -8.3359375 19.8359375 C-8.3359375 19.1759375 -8.3359375 18.5159375 -8.3359375 17.8359375 C-10.68446278 16.66167486 -12.07367815 16.72085577 -14.6875 16.73828125 C-15.96367188 16.74311523 -15.96367188 16.74311523 -17.265625 16.74804688 C-18.15507813 16.75642578 -19.04453125 16.76480469 -19.9609375 16.7734375 C-21.30671875 16.78020508 -21.30671875 16.78020508 -22.6796875 16.78710938 C-24.89850398 16.79891159 -27.11718768 16.81537595 -29.3359375 16.8359375 Z M-30.3359375 27.8359375 C-30.0059375 28.4959375 -29.6759375 29.1559375 -29.3359375 29.8359375 C-19.4359375 29.8359375 -9.5359375 29.8359375 0.6640625 29.8359375 C0.6640625 29.1759375 0.6640625 28.5159375 0.6640625 27.8359375 C-9.5659375 27.8359375 -19.7959375 27.8359375 -30.3359375 27.8359375 Z " fill="#3CD1A2" transform="translate(104.3359375,22.1640625)"/>
<path d="M0 0 C1.3337337 0.7989087 2.65663528 1.61881542 3.9375 2.5 C3.9375 3.49 3.9375 4.48 3.9375 5.5 C3.11765625 5.87511719 2.2978125 6.25023437 1.453125 6.63671875 C0.37546875 7.14847656 -0.7021875 7.66023438 -1.8125 8.1875 C-2.87984375 8.68636719 -3.9471875 9.18523438 -5.046875 9.69921875 C-8.24641889 11.60982721 -9.87342187 13.52699524 -12.0625 16.5 C-12.7225 16.83 -13.3825 17.16 -14.0625 17.5 C-15.16021083 19.43744525 -15.16021083 19.43744525 -16.125 21.75 C-16.46660156 22.51828125 -16.80820312 23.2865625 -17.16015625 24.078125 C-20.20085486 32.2393074 -20.04827741 41.37205039 -17.0625 49.5 C-16.69125 50.2425 -16.32 50.985 -15.9375 51.75 C-15.0625 53.5 -15.0625 53.5 -15.0625 56.5 C-22.9825 56.5 -30.9025 56.5 -39.0625 56.5 C-40.0625 51.5 -40.0625 51.5 -38.625 49.1875 C-38.109375 48.630625 -37.59375 48.07375 -37.0625 47.5 C-37.48402344 46.87351563 -37.90554687 46.24703125 -38.33984375 45.6015625 C-38.88769531 44.78429688 -39.43554688 43.96703125 -40 43.125 C-40.54527344 42.31289063 -41.09054688 41.50078125 -41.65234375 40.6640625 C-45.70329988 34.44735974 -44.93390387 25.70644683 -44.0625 18.5 C-41.7322276 11.20125394 -37.38628929 5.73857429 -31.0625 1.5 C-30.52625 1.08878906 -29.99 0.67757813 -29.4375 0.25390625 C-21.35263712 -4.96155217 -8.35723171 -4.18457679 0 0 Z " fill="#6EE9A7" transform="translate(76.0625,11.5)"/>
<path d="M0 0 C2.75 0.875 2.75 0.875 4.49609375 1.65625 C10.11758221 4.09939186 14.76465356 4.28575757 20.75 2.875 C22.42334039 1.88620795 24.09151823 0.88851664 25.75 -0.125 C28.625 -0.3125 28.625 -0.3125 31.75 0.875 C35.5502834 4.44472227 40.39092004 9.14014681 41.0859375 14.43359375 C41.09882813 15.38363281 41.11171875 16.33367187 41.125 17.3125 C41.15335938 18.25996094 41.18171875 19.20742187 41.2109375 20.18359375 C40.5852394 23.83703432 39.78295251 24.71252807 36.75 26.875 C33.31645178 27.48327769 29.91696937 27.43520476 26.4375 27.40625 C25.43162842 27.4100769 24.42575684 27.41390381 23.3894043 27.41784668 C21.26447549 27.42056651 19.13951324 27.41320041 17.01464844 27.39648438 C13.76161068 27.37507641 10.51078155 27.39628432 7.2578125 27.421875 C5.19270346 27.41923174 3.12759579 27.41410679 1.0625 27.40625 C0.08949951 27.41434692 -0.88350098 27.42244385 -1.88598633 27.43078613 C-8.60871359 27.33740663 -8.60871359 27.33740663 -11.85473633 24.99682617 C-14.56939907 20.86854378 -14.20996226 16.58580816 -13.25 11.875 C-10.73451969 7.28956042 -5.83344872 -0.32408048 0 0 Z " fill="#22C59F" transform="translate(95.25,114.125)"/>
<path d="M0 0 C3.1875 0.875 3.1875 0.875 6.4375 2.5 C11.31298249 4.28767691 15.16670546 4.04023559 20.1875 2.875 C21.86084039 1.88620795 23.52901823 0.88851664 25.1875 -0.125 C28.0625 -0.3125 28.0625 -0.3125 31.1875 0.875 C34.9877834 4.44472227 39.82842004 9.14014681 40.5234375 14.43359375 C40.53632812 15.38363281 40.54921875 16.33367187 40.5625 17.3125 C40.59085938 18.25996094 40.61921875 19.20742187 40.6484375 20.18359375 C40.0227394 23.83703432 39.22045251 24.71252807 36.1875 26.875 C32.75395178 27.48327769 29.35446937 27.43520476 25.875 27.40625 C24.86912842 27.4100769 23.86325684 27.41390381 22.8269043 27.41784668 C20.70197549 27.42056651 18.57701324 27.41320041 16.45214844 27.39648438 C13.19911068 27.37507641 9.94828155 27.39628432 6.6953125 27.421875 C4.63020346 27.41923174 2.56509579 27.41410679 0.5 27.40625 C-0.47300049 27.41434692 -1.44600098 27.42244385 -2.44848633 27.43078613 C-9.17121359 27.33740663 -9.17121359 27.33740663 -12.41723633 24.99682617 C-15.13189907 20.86854378 -14.77246226 16.58580816 -13.8125 11.875 C-11.03360001 6.80937577 -6.3023065 -0.28010251 0 0 Z " fill="#7AEEA8" transform="translate(27.8125,114.125)"/>
<path d="M0 0 C4.3400715 1.98449366 7.31686858 4.11653947 9.8515625 8.2734375 C11.51170901 13.5305681 11.35167513 18.66196347 9.7265625 23.8984375 C7.30728684 28.25313369 4.66001129 31.05644303 -0.0234375 33.0859375 C-6.6621198 33.67170359 -11.20070297 33.64007969 -17.1484375 30.2734375 C-21.58993971 26.17623779 -23.00871081 22.78851788 -23.3359375 16.8984375 C-23.06937425 11.74488131 -22.23698102 8.57364226 -18.8984375 4.5859375 C-13.1336084 -0.2617597 -7.34326064 -2.48335723 0 0 Z " fill="#22C59E" transform="translate(115.1484375,82.7265625)"/>
<path d="M0 0 C4.3400715 1.98449366 7.31686858 4.11653947 9.8515625 8.2734375 C11.51170901 13.5305681 11.35167513 18.66196347 9.7265625 23.8984375 C7.30728684 28.25313369 4.66001129 31.05644303 -0.0234375 33.0859375 C-6.6621198 33.67170359 -11.20070297 33.64007969 -17.1484375 30.2734375 C-21.58993971 26.17623779 -23.00871081 22.78851788 -23.3359375 16.8984375 C-23.06937425 11.74488131 -22.23698102 8.57364226 -18.8984375 4.5859375 C-13.1336084 -0.2617597 -7.34326064 -2.48335723 0 0 Z " fill="#79EEA8" transform="translate(47.1484375,82.7265625)"/>
</svg>
